<?xml version="1.0" encoding="utf-8"?>
<svg width="24" height="24" viewBox="0 0 24 24" fill="none" xmlns="http://www.w3.org/2000/svg">
  <defs>
    <linearGradient id="gradient_1" gradientUnits="userSpaceOnUse" x1="12" y1="0" x2="12" y2="24">
      <stop offset="0" stop-color="#DEC5E3" />
      <stop offset="1" stop-color="#B6DCFE" />
    </linearGradient>
    <linearGradient id="gradient_2" gradientUnits="userSpaceOnUse" x1="1.146" y1="0" x2="1.146" y2="2.749">
      <stop offset="0" stop-color="#B79CED" />
      <stop offset="1" stop-color="#EFD9CE" />
    </linearGradient>
    <linearGradient id="gradient_3" gradientUnits="userSpaceOnUse" x1="7.16" y1="0" x2="7.16" y2="2.749">
      <stop offset="0" stop-color="#7161EF" />
      <stop offset="1" stop-color="#FFADC7" />
    </linearGradient>
    <linearGradient id="gradient_4" gradientUnits="userSpaceOnUse" x1="1.375" y1="0" x2="1.375" y2="2.749">
      <stop offset="0" stop-color="#FFADC7" />
      <stop offset="1" stop-color="#7161EF" />
    </linearGradient>
    <radialGradient id="gradient_5" gradientUnits="userSpaceOnUse" cx="0" cy="0" r="1" gradientTransform="matrix(0.021 12.048 -13.626 0.023 7.345 1.403)">
      <stop offset="0" stop-color="#7161EF" />
      <stop offset="0.551" stop-color="#FFADC7" />
      <stop offset="1" stop-color="#EFD9CE" />
    </radialGradient>
  </defs>
  <g>
    <path d="M15.4081 0C20.1539 0 24 3.84607 24 8.59189C24 8.59189 24 15.4081 24 15.4081C24 20.1539 20.1539 24 15.4081 24C15.4081 24 8.59189 24 8.59189 24C3.84607 24 0 20.1539 0 15.4081C0 15.4081 0 8.59189 0 8.59189C0 3.84607 3.84607 0 8.59189 0C8.59189 0 15.4081 0 15.4081 0Z" fill="url(#gradient_1)" />
    <g transform="translate(10.854 5.026)">
      <path d="M1.14559 0C1.77836 0 2.29117 0.51281 2.29117 1.14558C2.29117 1.14558 2.29117 1.60382 2.29117 1.60382C2.29117 2.23659 1.77836 2.7494 1.14559 2.7494C1.14559 2.7494 1.14559 2.7494 1.14559 2.7494C0.51281 2.7494 0 2.23659 0 1.60382C0 1.60382 0 1.14558 0 1.14558C0 0.51281 0.51281 0 1.14559 0Z" />
      <path d="M2.29117 1.14558C2.29117 0.51281 1.77836 0 1.14559 0C0.51281 0 0 0.51281 0 1.14558C0 1.14558 0 1.60382 0 1.60382C0 2.23659 0.51281 2.7494 1.14559 2.7494C1.77836 2.7494 2.29117 2.23659 2.29117 1.60382C2.29117 1.60382 2.29117 1.14558 2.29117 1.14558ZM0.821529 0.821533C0.910982 0.732078 1.019 0.687351 1.14558 0.687351C1.27216 0.687351 1.38018 0.732078 1.46963 0.821533C1.55909 0.910986 1.60381 1.019 1.60381 1.14558C1.60381 1.14558 1.60381 1.60382 1.60381 1.60382C1.60381 1.7304 1.55909 1.83842 1.46963 1.92787C1.38018 2.01732 1.27216 2.06205 1.14558 2.06205C1.019 2.06205 0.910982 2.01732 0.821529 1.92787C0.732074 1.83842 0.687347 1.7304 0.687347 1.60382C0.687347 1.60382 0.687347 1.14558 0.687347 1.14558C0.687347 1.019 0.732074 0.910986 0.821529 0.821533Z" fill="url(#gradient_2)" fill-rule="evenodd" />
    </g>
    <path d="M0 1.3747C0 0.615477 3.2056 0 7.1599 0C11.1142 0 14.3198 0.615477 14.3198 1.3747C14.3198 2.13393 11.1142 2.7494 7.1599 2.7494C3.2056 2.7494 0 2.13393 0 1.3747Z" fill="url(#gradient_3)" fill-rule="evenodd" transform="translate(4.84 14.964)" />
    <path d="M0 1.3747C0 0.615477 0.615474 0 1.3747 0C2.13393 0 2.7494 0.615477 2.7494 1.3747C2.7494 2.13393 2.13393 2.7494 1.3747 2.7494C0.615474 2.7494 0 2.13393 0 1.3747Z" fill="url(#gradient_4)" fill-rule="evenodd" transform="translate(10.625 14.105)" />
    <path d="M3.04955 4.29594C3.04955 1.92336 4.9729 0 7.34549 0C9.71808 0 11.6414 1.92336 11.6414 4.29594C11.6414 6.66854 15.5794 8.8926 14.5054 9.96659C14.5054 9.96659 11.4696 8.59191 7.34549 8.59191C3.22139 8.59189 0.185585 9.96659 0.185585 9.96659C-0.888401 8.8926 3.04955 6.66854 3.04955 4.29594Z" fill="url(#gradient_5)" fill-rule="evenodd" transform="translate(4.655 6.372)" />
    <path d="M0.37232 0.069809C0.410875 0.069809 0.442129 0.0385542 0.442129 0C0.442129 0 0.47435 0 0.47435 0C0.47435 0.0385542 0.505604 0.069809 0.544159 0.069809C0.544159 0.069809 0.544159 0.102029 0.544159 0.102029C0.505604 0.102029 0.47435 0.133284 0.47435 0.171838C0.47435 0.171838 0.442129 0.171838 0.442129 0.171838C0.442129 0.133284 0.410875 0.102029 0.37232 0.102029C0.37232 0.102029 0.37232 0.069809 0.37232 0.069809ZM0 0.257756C0.0949039 0.257756 0.171837 0.180822 0.171837 0.0859184C0.171837 0.0859184 0.229116 0.0859184 0.229116 0.0859184C0.229116 0.180822 0.306051 0.257756 0.400953 0.257756C0.400953 0.257756 0.400953 0.315036 0.400953 0.315036C0.306051 0.315036 0.229116 0.39197 0.229116 0.486873C0.229116 0.486873 0.171837 0.486873 0.171837 0.486873C0.171837 0.39197 0.0949039 0.315036 0 0.315036C0 0.315036 0 0.257756 0 0.257756ZM0.465399 0.343676C0.465399 0.395081 0.423725 0.436754 0.37232 0.436754C0.37232 0.436754 0.37232 0.479713 0.37232 0.479713C0.423725 0.479713 0.465399 0.521387 0.465399 0.572792C0.465399 0.572792 0.508358 0.572792 0.508358 0.572792C0.508358 0.521387 0.550032 0.479713 0.601437 0.479713C0.601437 0.479713 0.601437 0.436754 0.601437 0.436754C0.550032 0.436754 0.508358 0.395081 0.508358 0.343676C0.508358 0.343676 0.465399 0.343676 0.465399 0.343676Z" fill="#EDF67D" transform="translate(17.041 11.069)" />
    <path d="M0.372322 0.069809C0.410876 0.069809 0.442131 0.0385542 0.442131 0C0.442131 0 0.47435 0 0.47435 0C0.47435 0.0385542 0.505605 0.069809 0.544159 0.069809C0.544159 0.069809 0.544159 0.102029 0.544159 0.102029C0.505605 0.102029 0.47435 0.133284 0.47435 0.171838C0.47435 0.171838 0.442131 0.171838 0.442131 0.171838C0.442131 0.133284 0.410876 0.102029 0.372322 0.102029C0.372322 0.102029 0.372322 0.069809 0.372322 0.069809ZM0 0.257756C0.0949035 0.257756 0.171838 0.180822 0.171838 0.0859194C0.171838 0.0859194 0.229117 0.0859194 0.229117 0.0859194C0.229117 0.180822 0.306052 0.257756 0.400955 0.257756C0.400955 0.257756 0.400955 0.315036 0.400955 0.315036C0.306052 0.315036 0.229117 0.391971 0.229117 0.486874C0.229117 0.486874 0.171838 0.486874 0.171838 0.486874C0.171838 0.391971 0.0949035 0.315036 0 0.315036C0 0.315036 0 0.257756 0 0.257756ZM0.4654 0.343676C0.4654 0.395081 0.423727 0.436754 0.372322 0.436754C0.372322 0.436754 0.372322 0.479713 0.372322 0.479713C0.423727 0.479713 0.4654 0.521387 0.4654 0.572792C0.4654 0.572792 0.50836 0.572792 0.50836 0.572792C0.50836 0.521387 0.550033 0.479713 0.601439 0.479713C0.601439 0.479713 0.601439 0.436754 0.601439 0.436754C0.550033 0.436754 0.50836 0.395081 0.50836 0.343676C0.50836 0.343676 0.4654 0.343676 0.4654 0.343676Z" fill="#EDF67D" transform="translate(7.017 9.924)" />
    <path d="M0 0.286396C0.158173 0.286396 0.286396 0.158172 0.286396 0C0.286396 0 0.343676 0 0.343676 0C0.343676 0.158172 0.471901 0.286396 0.630072 0.286396C0.630072 0.286396 0.630072 0.343676 0.630072 0.343676C0.471901 0.343676 0.343676 0.471901 0.343676 0.630072C0.343676 0.630072 0.286396 0.630072 0.286396 0.630072C0.286396 0.471901 0.158173 0.343676 0 0.343676C0 0.343676 0 0.286396 0 0.286396Z" fill="#EDF67D" transform="translate(15.637 7.461)" />
    <path d="M0 0.286396C0.158172 0.286396 0.286396 0.158173 0.286396 0C0.286396 0 0.343676 0 0.343676 0C0.343676 0.158173 0.471901 0.286396 0.630072 0.286396C0.630072 0.286396 0.630072 0.343676 0.630072 0.343676C0.471901 0.343676 0.343676 0.471901 0.343676 0.630072C0.343676 0.630072 0.286396 0.630072 0.286396 0.630072C0.286396 0.471901 0.158172 0.343676 0 0.343676C0 0.343676 0 0.286396 0 0.286396Z" fill="#EDF67D" transform="translate(6.243 18.315)" />
    <path d="M0 0.572792C0.316345 0.572792 0.572792 0.316344 0.572792 0C0.572792 0 0.687351 0 0.687351 0C0.687351 0.316344 0.943801 0.572792 1.26014 0.572792C1.26014 0.572792 1.26014 0.687351 1.26014 0.687351C0.943801 0.687351 0.687351 0.943802 0.687351 1.26014C0.687351 1.26014 0.572792 1.26014 0.572792 1.26014C0.572792 0.943802 0.316345 0.687351 0 0.687351C0 0.687351 0 0.572792 0 0.572792Z" fill="#EDF67D" transform="translate(4.897 13.475)" />
    <path d="M0 0.572793C0.316344 0.572793 0.572792 0.316345 0.572792 0C0.572792 0 0.68735 0 0.68735 0C0.68735 0.316345 0.943801 0.572793 1.26014 0.572793C1.26014 0.572793 1.26014 0.687351 1.26014 0.687351C0.943801 0.687351 0.68735 0.943801 0.68735 1.26014C0.68735 1.26014 0.572792 1.26014 0.572792 1.26014C0.572792 0.943801 0.316344 0.687351 0 0.687351C0 0.687351 0 0.572793 0 0.572793Z" fill="#EDF67D" transform="translate(9.308 5.084)" />
    <path d="M0 0.763723C0.421793 0.763723 0.763723 0.421793 0.763723 0C0.763723 0 0.916468 0 0.916468 0C0.916468 0.421793 1.2584 0.763723 1.68019 0.763723C1.68019 0.763723 1.68019 0.916468 1.68019 0.916468C1.2584 0.916468 0.916468 1.2584 0.916468 1.68019C0.916468 1.68019 0.763723 1.68019 0.763723 1.68019C0.763723 1.2584 0.421793 0.916468 0 0.916468C0 0.916468 0 0.763723 0 0.763723Z" fill="#EDF67D" transform="translate(15.255 16.874)" />
  </g>
</svg>