<?xml version="1.0" encoding="utf-8"?>
<svg width="28" height="32" viewBox="0 0 28 32" fill="none" xmlns="http://www.w3.org/2000/svg">
  <path d="M4 18L6 18L6 20L4 20L4 18ZM2 20L4 20L4 22L2 22L2 20ZM0 22L2 22L2 24L0 24L0 22ZM0 24L2 24L2 26L0 26L0 24ZM2 26L4 26L4 28L2 28L2 26ZM4 26L6 26L6 28L4 28L4 26ZM6 26L8 26L8 28L6 28L6 26ZM8 26L10 26L10 28L8 28L8 26ZM10 26L12 26L12 28L10 28L10 26ZM12 26L14 26L14 28L12 28L12 26ZM14 26L16 26L16 28L14 28L14 26ZM16 26L18 26L18 28L16 28L16 26ZM18 26L20 26L20 28L18 28L18 26ZM20 26L22 26L22 28L20 28L20 26ZM22 26L24 26L24 28L22 28L22 26ZM24 26L26 26L26 28L24 28L24 26ZM4 16L6 16L6 18L4 18L4 16ZM6 14L8 14L8 16L6 16L6 14ZM6 12L8 12L8 14L6 14L6 12ZM18 8L20 8L20 10L18 10L18 8ZM6 10L8 10L8 12L6 12L6 10ZM20 10L22 10L22 12L20 12L20 10ZM8 8L10 8L10 10L8 10L8 8ZM10 8L12 8L12 10L10 10L10 8ZM16 8L18 8L18 10L16 10L16 8ZM20 14L22 14L22 16L20 16L20 14ZM20 12L22 12L22 14L20 14L20 12ZM22 16L24 16L24 18L22 18L22 16ZM20 16L22 16L22 20L20 20L20 16ZM22 18L24 18L24 20L22 20L22 18ZM24 20L26 20L26 22L24 22L24 20ZM12 0L14 0L14 2L12 2L12 0ZM14 0L16 0L16 2L14 2L14 0ZM10 2L12 2L12 4L10 4L10 2ZM10 4L12 4L12 6L10 6L10 4ZM12 6L14 6L14 8L12 8L12 6ZM14 6L16 6L16 8L14 8L14 6ZM16 4L18 4L18 6L16 6L16 4ZM16 2L18 2L18 4L16 4L16 2ZM10 28L12 28L12 30L10 30L10 28ZM12 30L14 30L14 32L12 32L12 30ZM14 30L16 30L16 32L14 32L14 30ZM16 28L18 28L18 30L16 30L16 28ZM26 22L28 22L28 24L26 24L26 22ZM26 24L28 24L28 26L26 26L26 24ZM8 10L20 10L20 26L8 26L8 10ZM6 16L8 16L8 20L6 20L6 16ZM12 8L16 8L16 10L12 10L12 8ZM20 20L24 20L24 22L20 22L20 20ZM4 20L8 20L8 22L4 22L4 20ZM2 22L8 22L8 24L2 24L2 22ZM2 24L8 24L8 26L2 26L2 24ZM20 22L26 22L26 24L20 24L20 22ZM20 24L26 24L26 26L20 26L20 24Z" fill="#000000" />
</svg>